<mxfile host="app.diagrams.net" agent="Mozilla/5.0 (Windows NT 10.0; Win64; x64) AppleWebKit/537.36 (KHTML, like Gecko) Chrome/136.0.0.0 Safari/537.36 Edg/136.0.0.0" version="26.2.14">
  <diagram name="Página-1" id="WxadNNkPlmH1iVaN_wy6">
    <mxGraphModel dx="1775" dy="572" grid="1" gridSize="10" guides="1" tooltips="1" connect="1" arrows="1" fold="1" page="1" pageScale="1" pageWidth="827" pageHeight="1169" math="0" shadow="0">
      <root>
        <mxCell id="0" />
        <mxCell id="1" parent="0" />
        <mxCell id="LrPeQW695Y6wb-71FcB9-14" value="" style="whiteSpace=wrap;strokeWidth=2;" vertex="1" parent="1">
          <mxGeometry x="-100" y="361" width="230" height="226" as="geometry" />
        </mxCell>
        <mxCell id="2" value="" style="whiteSpace=wrap;strokeWidth=2;" parent="1" vertex="1">
          <mxGeometry x="220" y="360" width="340" height="180" as="geometry" />
        </mxCell>
        <mxCell id="nmIVlAX9nWCSrf9puVlY-9" value="&lt;div&gt;&lt;b&gt;&lt;br&gt;&lt;/b&gt;&lt;/div&gt;&lt;div&gt;&lt;b&gt;Backend&lt;/b&gt;&lt;/div&gt;" style="html=1;whiteSpace=wrap;labelPosition=center;verticalLabelPosition=middle;verticalAlign=top;align=center;fontSize=12;outlineConnect=0;spacingTop=-6;sketch=0;shape=mxgraph.sitemap.cloud;fillColor=#CCCCCC;fontColor=#333333;strokeColor=#666666;fillStyle=auto;gradientColor=none;opacity=40;" parent="1" vertex="1">
          <mxGeometry x="220" y="361" width="340" height="179" as="geometry" />
        </mxCell>
        <mxCell id="3" value="" style="whiteSpace=wrap;strokeWidth=2;" parent="1" vertex="1">
          <mxGeometry x="-100" y="30" width="500" height="226" as="geometry" />
        </mxCell>
        <mxCell id="4" value="Plataforma" style="ellipse;aspect=fixed;strokeWidth=2;whiteSpace=wrap;perimeterSpacing=0;" parent="1" vertex="1">
          <mxGeometry x="247" y="165" width="66" height="66" as="geometry" />
        </mxCell>
        <mxCell id="5" value="Backend" style="ellipse;aspect=fixed;strokeWidth=2;whiteSpace=wrap;" parent="1" vertex="1">
          <mxGeometry x="242.5" y="421" width="75" height="75" as="geometry" />
        </mxCell>
        <mxCell id="6" value="Petición" style="curved=1;startArrow=none;endArrow=block;exitX=0.12;exitY=1.01;entryX=0.15;entryY=0;" parent="1" source="4" target="5" edge="1">
          <mxGeometry relative="1" as="geometry">
            <Array as="points">
              <mxPoint x="220" y="260" />
              <mxPoint x="220" y="360" />
            </Array>
          </mxGeometry>
        </mxCell>
        <mxCell id="7" value="Respuesta" style="curved=1;startArrow=none;endArrow=block;exitX=0.85;exitY=0;entryX=0.89;entryY=1.01;" parent="1" source="5" target="4" edge="1">
          <mxGeometry relative="1" as="geometry">
            <Array as="points">
              <mxPoint x="340" y="360" />
              <mxPoint x="340" y="260" />
            </Array>
          </mxGeometry>
        </mxCell>
        <mxCell id="_3mTjwF_XePvwmUguqEE-8" value="" style="edgeStyle=orthogonalEdgeStyle;rounded=0;orthogonalLoop=1;jettySize=auto;html=1;" parent="1" source="nmIVlAX9nWCSrf9puVlY-12" target="4" edge="1">
          <mxGeometry relative="1" as="geometry">
            <mxPoint x="160" y="179.9565217391305" as="sourcePoint" />
          </mxGeometry>
        </mxCell>
        <mxCell id="_3mTjwF_XePvwmUguqEE-10" value="Base de Datos" style="shape=datastore;whiteSpace=wrap;html=1;" parent="1" vertex="1">
          <mxGeometry x="480" y="428.5" width="60" height="60" as="geometry" />
        </mxCell>
        <mxCell id="_3mTjwF_XePvwmUguqEE-13" value="&lt;b&gt;&lt;font style=&quot;font-size: 14px;&quot;&gt;Frontend&lt;/font&gt;&lt;/b&gt;" style="text;html=1;align=center;verticalAlign=middle;resizable=0;points=[];autosize=1;strokeColor=none;fillColor=none;" parent="1" vertex="1">
          <mxGeometry x="110" y="30" width="80" height="30" as="geometry" />
        </mxCell>
        <mxCell id="_3mTjwF_XePvwmUguqEE-14" value="" style="endArrow=block;startArrow=block;endFill=1;startFill=1;html=1;rounded=0;exitX=1;exitY=0.5;exitDx=0;exitDy=0;entryX=0;entryY=0.5;entryDx=0;entryDy=0;" parent="1" source="5" target="_3mTjwF_XePvwmUguqEE-10" edge="1">
          <mxGeometry width="160" relative="1" as="geometry">
            <mxPoint x="240" y="431" as="sourcePoint" />
            <mxPoint x="400" y="431" as="targetPoint" />
          </mxGeometry>
        </mxCell>
        <mxCell id="_3mTjwF_XePvwmUguqEE-15" value="Consultas" style="edgeLabel;html=1;align=center;verticalAlign=middle;resizable=0;points=[];" parent="_3mTjwF_XePvwmUguqEE-14" vertex="1" connectable="0">
          <mxGeometry x="-0.1142" y="-1" relative="1" as="geometry">
            <mxPoint x="5" y="-1" as="offset" />
          </mxGeometry>
        </mxCell>
        <mxCell id="nmIVlAX9nWCSrf9puVlY-7" value="Inicio de sesión" style="html=1;whiteSpace=wrap;strokeColor=#666666;fillColor=#CCCCCC;labelPosition=center;verticalLabelPosition=middle;verticalAlign=top;align=center;fontSize=12;outlineConnect=0;spacingTop=-6;fontColor=#333333;sketch=0;shape=mxgraph.sitemap.login;" parent="1" vertex="1">
          <mxGeometry x="-80" y="76" width="120" height="70" as="geometry" />
        </mxCell>
        <mxCell id="nmIVlAX9nWCSrf9puVlY-10" value="" style="group" parent="1" vertex="1" connectable="0">
          <mxGeometry x="-200" y="45" width="60" height="90" as="geometry" />
        </mxCell>
        <mxCell id="_3mTjwF_XePvwmUguqEE-11" value="" style="shape=actor;whiteSpace=wrap;html=1;movable=1;resizable=1;rotatable=1;deletable=1;editable=1;locked=0;connectable=1;" parent="nmIVlAX9nWCSrf9puVlY-10" vertex="1">
          <mxGeometry x="10" width="40" height="60" as="geometry" />
        </mxCell>
        <mxCell id="_3mTjwF_XePvwmUguqEE-12" value="Usuario" style="text;html=1;align=center;verticalAlign=middle;resizable=1;points=[];autosize=1;strokeColor=none;fillColor=none;movable=1;rotatable=1;deletable=1;editable=1;locked=0;connectable=1;" parent="nmIVlAX9nWCSrf9puVlY-10" vertex="1">
          <mxGeometry y="60" width="60" height="30" as="geometry" />
        </mxCell>
        <mxCell id="nmIVlAX9nWCSrf9puVlY-11" value="" style="endArrow=classic;html=1;rounded=0;exitX=1;exitY=0.75;exitDx=0;exitDy=0;" parent="1" source="_3mTjwF_XePvwmUguqEE-11" target="nmIVlAX9nWCSrf9puVlY-7" edge="1">
          <mxGeometry width="50" height="50" relative="1" as="geometry">
            <mxPoint x="-90" y="270" as="sourcePoint" />
            <mxPoint x="-40" y="220" as="targetPoint" />
          </mxGeometry>
        </mxCell>
        <mxCell id="nmIVlAX9nWCSrf9puVlY-12" value="" style="outlineConnect=0;dashed=0;verticalLabelPosition=bottom;verticalAlign=top;align=center;html=1;shape=mxgraph.aws3.long_term_security_credential;fillColor=#ffffff;gradientColor=none;" parent="1" vertex="1">
          <mxGeometry x="80" y="146" width="60" height="48" as="geometry" />
        </mxCell>
        <mxCell id="nmIVlAX9nWCSrf9puVlY-13" value="Autenticación" style="text;html=1;align=center;verticalAlign=middle;resizable=0;points=[];autosize=1;strokeColor=none;fillColor=none;" parent="1" vertex="1">
          <mxGeometry x="60" y="201" width="100" height="30" as="geometry" />
        </mxCell>
        <mxCell id="nmIVlAX9nWCSrf9puVlY-14" value="" style="edgeStyle=none;orthogonalLoop=1;jettySize=auto;html=1;rounded=0;entryX=0;entryY=0.5;entryDx=0;entryDy=0;entryPerimeter=0;exitX=1;exitY=0.5;exitDx=0;exitDy=0;exitPerimeter=0;" parent="1" source="nmIVlAX9nWCSrf9puVlY-7" target="nmIVlAX9nWCSrf9puVlY-12" edge="1">
          <mxGeometry width="100" relative="1" as="geometry">
            <mxPoint x="-50" y="270" as="sourcePoint" />
            <mxPoint x="50" y="270" as="targetPoint" />
            <Array as="points" />
          </mxGeometry>
        </mxCell>
        <mxCell id="nmIVlAX9nWCSrf9puVlY-15" value="" style="verticalLabelPosition=bottom;aspect=fixed;html=1;shape=mxgraph.salesforce.web;" parent="1" vertex="1">
          <mxGeometry x="120" y="60" width="60" height="47.400000000000006" as="geometry" />
        </mxCell>
        <mxCell id="nmIVlAX9nWCSrf9puVlY-16" value="&lt;span style=&quot;font-weight: 400;&quot;&gt;GUI&lt;/span&gt;" style="swimlane;whiteSpace=wrap;html=1;startSize=23;" parent="1" vertex="1">
          <mxGeometry x="200" y="127.4" width="180" height="112.6" as="geometry" />
        </mxCell>
        <mxCell id="nmIVlAX9nWCSrf9puVlY-17" value="" style="aspect=fixed;sketch=0;html=1;dashed=0;whitespace=wrap;verticalLabelPosition=bottom;verticalAlign=top;fillColor=#2875E2;strokeColor=#ffffff;points=[[0.005,0.63,0],[0.1,0.2,0],[0.9,0.2,0],[0.5,0,0],[0.995,0.63,0],[0.72,0.99,0],[0.5,1,0],[0.28,0.99,0]];shape=mxgraph.kubernetes.icon2;kubernetesLabel=1;prIcon=api" parent="1" vertex="1">
          <mxGeometry x="248.75" y="290" width="62.5" height="60" as="geometry" />
        </mxCell>
        <mxCell id="nmIVlAX9nWCSrf9puVlY-23" value="" style="group" parent="1" vertex="1" connectable="0">
          <mxGeometry x="100" y="295" width="80" height="64" as="geometry" />
        </mxCell>
        <mxCell id="nmIVlAX9nWCSrf9puVlY-21" value="" style="verticalLabelPosition=bottom;html=1;verticalAlign=top;strokeWidth=1;align=center;outlineConnect=0;dashed=0;outlineConnect=0;shape=mxgraph.aws3d.secureConnection;fillColor=#000000;strokeColor=#ffffff;aspect=fixed;" parent="nmIVlAX9nWCSrf9puVlY-23" vertex="1">
          <mxGeometry x="1.5" width="56.99999999999999" height="34" as="geometry" />
        </mxCell>
        <mxCell id="nmIVlAX9nWCSrf9puVlY-22" value="Envío de datos" style="text;html=1;align=center;verticalAlign=middle;resizable=0;points=[];autosize=1;strokeColor=none;fillColor=none;" parent="nmIVlAX9nWCSrf9puVlY-23" vertex="1">
          <mxGeometry x="-20" y="34" width="100" height="30" as="geometry" />
        </mxCell>
        <mxCell id="nmIVlAX9nWCSrf9puVlY-24" value="" style="shape=curlyBracket;whiteSpace=wrap;html=1;rounded=1;labelPosition=left;verticalLabelPosition=middle;align=right;verticalAlign=middle;" parent="1" vertex="1">
          <mxGeometry x="170" y="290" width="20" height="60" as="geometry" />
        </mxCell>
        <mxCell id="LrPeQW695Y6wb-71FcB9-7" value="" style="shape=curlyBracket;whiteSpace=wrap;html=1;rounded=1;labelPosition=left;verticalLabelPosition=middle;align=right;verticalAlign=middle;size=0.5;rotation=-180;" vertex="1" parent="1">
          <mxGeometry x="370" y="290" width="20" height="60" as="geometry" />
        </mxCell>
        <mxCell id="LrPeQW695Y6wb-71FcB9-9" value="IA de análisis de texto" style="sketch=0;points=[[0,0,0],[0.25,0,0],[0.5,0,0],[0.75,0,0],[1,0,0],[0,1,0],[0.25,1,0],[0.5,1,0],[0.75,1,0],[1,1,0],[0,0.25,0],[0,0.5,0],[0,0.75,0],[1,0.25,0],[1,0.5,0],[1,0.75,0]];outlineConnect=0;fontColor=#232F3E;fillColor=#01A88D;strokeColor=#ffffff;dashed=0;verticalLabelPosition=bottom;verticalAlign=top;align=center;html=1;fontSize=12;fontStyle=0;aspect=fixed;shape=mxgraph.aws4.resourceIcon;resIcon=mxgraph.aws4.augmented_ai;" vertex="1" parent="1">
          <mxGeometry y="462" width="78" height="78" as="geometry" />
        </mxCell>
        <mxCell id="LrPeQW695Y6wb-71FcB9-10" style="edgeStyle=orthogonalEdgeStyle;rounded=0;orthogonalLoop=1;jettySize=auto;html=1;entryX=0.989;entryY=0.536;entryDx=0;entryDy=0;entryPerimeter=0;startArrow=classic;startFill=1;" edge="1" parent="1" source="5" target="LrPeQW695Y6wb-71FcB9-8">
          <mxGeometry relative="1" as="geometry">
            <mxPoint x="120" y="451" as="targetPoint" />
          </mxGeometry>
        </mxCell>
        <mxCell id="LrPeQW695Y6wb-71FcB9-12" value="" style="group" vertex="1" connectable="0" parent="1">
          <mxGeometry x="-20" y="370" width="130" height="82.5" as="geometry" />
        </mxCell>
        <mxCell id="LrPeQW695Y6wb-71FcB9-8" value="" style="points=[];aspect=fixed;html=1;align=center;shadow=0;dashed=0;fillColor=#FF6A00;strokeColor=none;shape=mxgraph.alibaba_cloud.mps-ai;" vertex="1" parent="LrPeQW695Y6wb-71FcB9-12">
          <mxGeometry x="37.8" width="52.2" height="52.5" as="geometry" />
        </mxCell>
        <mxCell id="LrPeQW695Y6wb-71FcB9-11" value="IA de Transcripción" style="text;html=1;align=center;verticalAlign=middle;resizable=0;points=[];autosize=1;strokeColor=none;fillColor=none;" vertex="1" parent="LrPeQW695Y6wb-71FcB9-12">
          <mxGeometry y="52.5" width="130" height="30" as="geometry" />
        </mxCell>
        <mxCell id="LrPeQW695Y6wb-71FcB9-13" style="edgeStyle=orthogonalEdgeStyle;rounded=0;orthogonalLoop=1;jettySize=auto;html=1;startArrow=classic;startFill=1;" edge="1" parent="1" source="5" target="LrPeQW695Y6wb-71FcB9-9">
          <mxGeometry relative="1" as="geometry" />
        </mxCell>
        <mxCell id="LrPeQW695Y6wb-71FcB9-15" value="&lt;b&gt;Servicios Externos&lt;/b&gt;" style="text;html=1;align=center;verticalAlign=middle;resizable=0;points=[];autosize=1;strokeColor=none;fillColor=none;rotation=-90;" vertex="1" parent="1">
          <mxGeometry x="-135" y="443.5" width="130" height="30" as="geometry" />
        </mxCell>
      </root>
    </mxGraphModel>
  </diagram>
</mxfile>
